<?xml version="1.0" encoding="utf-8"?>
<!-- Generator: Adobe Illustrator 16.0.0, SVG Export Plug-In . SVG Version: 6.00 Build 0)  -->
<!DOCTYPE svg PUBLIC "-//W3C//DTD SVG 1.1//EN" "http://www.w3.org/Graphics/SVG/1.1/DTD/svg11.dtd">
<svg version="1.1" id="Layer_1" xmlns="http://www.w3.org/2000/svg" xmlns:xlink="http://www.w3.org/1999/xlink" x="0px" y="0px"
	 width="200px" height="200px" viewBox="0 0 200 200" enable-background="new 0 0 200 200" xml:space="preserve">
<path fill="#FFFFFF" d="M138.943,173.371c-62.287-8.539-103.731-58.533-92.567-111.662C51.155,38.963,64.82,19.347,83.756,5
	C44.16,16.036,12.607,44.886,4.789,82.09c-11.163,53.13,30.282,103.123,92.568,111.662c35.619,4.883,70.324-4.863,95.615-24.025
	C176.025,174.451,157.613,175.93,138.943,173.371z"/>
<polygon fill="#FFFFFF" points="125.869,38.961 135.434,70.923 168.787,70.143 141.346,89.117 152.395,120.598 125.869,100.361 
	99.344,120.598 110.393,89.117 82.95,70.143 116.305,70.923 "/>
</svg>
