<?xml version="1.0" encoding="utf-8"?>
<!-- Generator: Adobe Illustrator 16.0.0, SVG Export Plug-In . SVG Version: 6.00 Build 0)  -->
<!DOCTYPE svg PUBLIC "-//W3C//DTD SVG 1.1//EN" "http://www.w3.org/Graphics/SVG/1.1/DTD/svg11.dtd">
<svg version="1.1" id="Layer_1" xmlns="http://www.w3.org/2000/svg" xmlns:xlink="http://www.w3.org/1999/xlink" x="0px" y="0px"
	 width="612pt" height="auto" viewBox="0 0 612 792" enable-background="new 0 0 612 792" xml:space="preserve">
<g>
	<rect x="0" fill="#8CC970" width="612" height="578.137"/>
	<rect x="0" y="578.137" fill="#FFFFFF" stroke="#0D0B08" stroke-miterlimit="10" width="612" height="187.838"/>
	<g>
		<path fill="#FFFFFF" d="M289.597,293.571c-51.774-8.788-87.003-55.638-78.685-104.642c3.561-20.98,14.541-38.938,29.982-51.944
			c-32.623,9.649-58.267,35.897-64.091,70.213c-8.317,49.004,26.912,95.855,78.686,104.642c29.608,5.025,58.2-3.501,78.823-20.874
			C320.35,295.097,305.116,296.205,289.597,293.571z"/>
		<g>
			<g>
				<g>
					<g>
						<polygon fill="#59BA47" points="289.234,295.713 289.69,296.417 292.799,296.04 						"/>
						<path fill="#59BA47" d="M320.101,296.895c1.327-0.574,3.293-1.07,4.86-1.787c1.573-0.695,2.78-1.396,2.678-2.053
							c0,0-1.147,0.539-2.295,1.078c-0.58,0.268-1.16,0.537-1.596,0.738c-0.442,0.178-0.736,0.296-0.736,0.296
							c-0.428-0.445-1.438-0.532-2.69-0.417c-0.626,0.058-1.313,0.167-2.02,0.308c-0.711,0.111-1.442,0.236-2.15,0.384
							c0,0,0.81-0.089,1.62-0.178c0.406-0.036,0.808-0.109,1.109-0.16s0.503-0.084,0.503-0.084
							c-0.815,0.256-0.203,0.809-1.026,1.066c-2.531-0.025-4.074,0.331-5.595,0.613c-1.52,0.208-3.019,0.321-5.346-0.148
							l0.262-0.114c0,0-0.911,0.205-1.828,0.326c-0.92,0.14-1.839,0.281-1.839,0.281c-1.157-0.177-0.679-0.637-0.307-0.809
							c-0.819,0.117-1.591,0.226-2.354,0.334c-0.766,0.095-1.525,0.128-2.322,0.169c-0.797,0.034-1.632,0.047-2.544,0.024
							c-0.456-0.014-0.933-0.026-1.432-0.067c-0.497-0.059-1.018-0.129-1.568-0.214c1.59,1.2,4.112,0.968,6.566,0.835
							c2.468-0.181,4.889-0.556,6.61,0.418l-0.261,0.1c2.159-0.366,4.485-0.317,6.838-0.297c1.173-0.031,2.352-0.058,3.508-0.133
							c0.578-0.038,1.15-0.087,1.713-0.155C319.017,297.154,319.565,297.036,320.101,296.895z"/>
						<path fill="#59BA47" d="M303.705,296.236c0.099-0.014,0.191-0.027,0.287-0.04
							C303.973,296.145,303.849,296.172,303.705,296.236z"/>
						<path fill="#59BA47" d="M206.155,282.819l-0.322,0.092C206.086,283.007,206.327,283.091,206.155,282.819z"/>
						<path fill="#59BA47" d="M249.756,310.377c-0.083-0.033-0.159-0.062-0.243-0.095
							C249.093,310.594,249.29,310.539,249.756,310.377z"/>
						<path fill="#59BA47" d="M210.704,231.278l-0.048,1.161C210.936,232.057,210.894,231.67,210.704,231.278z"/>
						<path fill="#59BA47" d="M257.525,286.651l0.108,0.035C257.599,286.675,257.554,286.661,257.525,286.651z"/>
						<path fill="#59BA47" d="M234.998,262.248l0.175-0.35C234.928,261.942,234.9,262.068,234.998,262.248z"/>
						<path fill="#59BA47" d="M252.602,276.294c0.476,0.419,0.955,0.812,1.479,1.161
							C253.829,277.047,253.194,276.581,252.602,276.294z"/>
						<path fill="#59BA47" d="M256.805,286.452c0.227,0.043,0.476,0.118,0.72,0.2C257.258,286.558,256.994,286.47,256.805,286.452z"
							/>
						<path fill="#59BA47" d="M217.762,233.254l0.581-1.146C218.054,232.228,217.909,232.755,217.762,233.254z"/>
						<path fill="#59BA47" d="M257.705,278.56c0.175,0.315,0.488,0.61,0.84,0.883C258.451,279.17,258.188,278.849,257.705,278.56z"
							/>
						<path fill="#59BA47" d="M324.861,296.08c-0.658,0.166-1.408,0.285-2.308,0.525
							C323.433,296.543,324.188,296.377,324.861,296.08z"/>
						<path fill="#59BA47" d="M218.172,143.208c0.11-0.181,0.176-0.358,0.188-0.532
							C217.939,143.014,217.982,143.143,218.172,143.208z"/>
						<path fill="#59BA47" d="M215.693,181.991l-0.027,0.242c0.057-0.051,0.12-0.128,0.224-0.255L215.693,181.991z"/>
						<path fill="#59BA47" d="M223.711,162.159c0.004,0.122,0.018,0.24,0.042,0.353
							C223.776,162.286,223.748,162.205,223.711,162.159z"/>
						<path fill="#59BA47" d="M214.086,198.019c0.055,0.264,0.148,0.529,0.285,0.76c0,0-0.076-0.19-0.151-0.38
							C214.153,198.208,214.086,198.019,214.086,198.019z"/>
						<path fill="#59BA47" d="M213.562,213.419c0.255-0.73,0.665-0.028,1.073,0.646c-0.012-1.924-0.359-3.158-0.558-4.442
							c-0.221-1.276-0.453-2.592-0.038-4.588l-0.438,1.883c-0.354-1.273-0.654-3.121-0.626-4.935
							c0.075-1.813,0.258-3.591,0.861-4.702l0.25,0.736c-0.27-1.244,0.02-2.812,0.335-4.179c0.376-1.364,0.737-2.538,0.489-3.103
							c-0.556,0.934-0.646-0.149-1.257,1.354c0,0,0.007-0.397,0.016-0.992c0.021-0.594-0.002-1.397,0.061-2.189
							c0.106-1.594,0.213-3.188,0.213-3.188l1.371-0.185l0.353-3.303c-0.733,0.64,1.597-4.137,0.497-4.579
							c1.07-1.646,0.654,1.04,0.991,1.83c0.16-1.889,0.808-1.878,0.638-3.757c0,0,0.415-0.337,0.83-0.673
							c0.431-0.324,0.862-0.648,0.862-0.648s0.247-1.189,0.495-2.378c0.277-1.183,0.593-2.363,0.594-2.363
							c0,0.267,0.193,0.025,0.196,0.281c0.006-0.599,0.175-1.21,0.443-1.827c0.285-0.609,0.65-1.231,1.004-1.878
							c0.68-1.312,1.441-2.646,1.402-4.302c-0.019,0.158,0.049,0.148,0.093,0.222c-0.023-1.809,2.595-4.744,3.564-5.76
							c1.231-2.203-0.299-1.492-0.637-1.854c1.155-1.448,1.928-2.419,2.5-3.136c0.588-0.703,0.942-1.177,1.234-1.657
							c0.573-0.973,0.925-1.917,2.522-4.723c1.828-0.871,1.456,0.324,1.186,1.381c-0.255,1.082-0.46,1.99,1.455,0.611
							c-0.039-0.458,0.403-1.36,1.153-2.509c0.751-1.146,1.874-2.48,3.13-3.833c0.785-0.51,1.69-1.137,2.659-1.814l9.838-6.867
							l-12.118,2.632c-3.168,0.688-6.938,1.457-9.505,1.841l0.676,0.728c0,0-1.106,0.59-2.211,1.179
							c-1.116,0.561-2.169,1.243-2.169,1.243c0,0,0.487-0.632,1.004-1.22c0.526-0.58,1.052-1.16,1.052-1.16
							c-0.305,0.31-1.003,0.793-1.747,1.425c-0.737,0.629-1.558,1.33-2.217,1.893c-2.138,1.491-3.028,1.344-3.738,1.277
							c-0.715-0.09-1.288-0.174-2.691,1.442c-0.187-0.012-0.355-0.03-0.479-0.068c-0.192,0.316-0.529,0.644-0.977,0.992
							c-0.459,0.335-1,0.729-1.608,1.171c-1.222,0.876-2.748,1.888-4.3,3.077l0.457-1.736l2.28-1.204
							c-1.79-0.198-3.466,2.462-5.427,3.964c-1.82,1.9-0.193,1.884-1.065,2.992c-0.792,0.494-1.578,1.698-2.356,1.917
							c-1.935,1.207-1.106-0.898-0.882-1.768c-0.351,1.12-0.671,1.754-1.278,2.519c-0.607,0.763-1.524,1.633-2.862,3.382
							c-0.568-0.248-0.522-0.654-0.189-1.15c-0.549,0.765-0.937,1.515-0.901,2.214l-1.54,0.576
							c-1.083,0.692-1.649,1.449-2.062,2.142c-0.403,0.702-0.605,1.386-0.807,2.1c-0.202,0.714-0.404,1.458-0.811,2.283
							c-0.367,0.858-0.915,1.814-1.87,2.925c0.213-0.818-0.516,0.215-1.509,1.576c-0.979,1.372-2.053,3.181-2.883,3.724
							c0.953-1.831-2.012-0.104-1.941-1.542c-1.504,1.916-1.454,2.513-1.235,3.063c0.206,0.543,0.543,1.03-0.259,2.784l-0.546-2.103
							c-1.241,3.611,0.254,1.197-1.162,4.75c0.106-1.124-1.133,1.326-0.508-0.896c-1.192,2.195-1.518,3.068-1.897,3.829
							c-0.183,0.384-0.357,0.751-0.604,1.271c-0.237,0.524-0.622,1.17-1.02,2.197l1.207,0.866c-0.35,1.417-1.138,1.713-1.528,2.012
							c0.184-0.579,0.559-1.446,0.356-1.433c-1.747,1.189-0.344,2.847-2.042,4.361c0.569-0.333,1.321-0.658,0.902,1.095
							c-0.675-0.823-1.546,2.429-1.939,2.463c0.451-0.474,0.248,0.482,0.042,1.612c-0.247,1.121-0.284,2.466,0.134,2.684
							c-1.069,1.902-0.542-0.793-0.981-1.023c0.367,0.976,0.034,2.767-0.354,4.537c-0.098,0.443-0.195,0.884-0.289,1.31
							c-0.062,0.431-0.12,0.846-0.174,1.229c-0.092,0.77-0.124,1.418-0.021,1.831c-0.091,0.022-0.166,0.101-0.221,0.087
							c0.154,1.135,0.228,2.615,0.336,4.359c0.055,1.739,0.305,3.752,0.722,5.915l-0.774-1.506c-0.274,2.192,0.183,2.866,0.676,3.43
							c0.486,0.566,1.014,1.028,1.041,2.812c-1.277-0.697,0.503,5.903-0.921,4.414c0.395,1.047,0.824,2.116,1.216,3.085
							c0.417,0.966,0.821,1.833,1.462,2.43c-0.144,1.044-0.72,0.173-1.21-0.636c-0.464-0.81-0.878-1.546-0.868-0.111
							c0,0,0.063,0.185,0.158,0.461c0.107,0.273,0.25,0.639,0.393,1.003c0.285,0.726,0.57,1.451,0.57,1.451l-0.525,0.654
							c0.247,0.017,0.487,0.686,0.729,1.317c0.263,0.627,0.505,1.222,0.671,1.115c-0.637,0.624-0.876,1.956-1.467,1.958
							c0.167,0.465,0.284,0.993,0.389,1.545c0.119,0.548,0.243,1.117,0.364,1.676c0.251,1.115,0.523,2.189,1.092,2.868l-0.308,0.25
							c0.977,0.682,1.521,2.059,2.035,3.328c0.549,1.254,1.109,2.38,1.953,2.543l-0.286,1.417c1.315,2.667,2.464,1.525,3.33,2.607
							c0.504,1.045,1.335,2.213,1.773,3.361c-2.563-2.956-0.17,2.243-0.175,3.183c0.373,0.658,1.133,1.945,1.976,3.134
							c0.889,1.161,1.833,2.236,2.46,2.546c-1.599-1.113-1.514,0.179-3.33-2.574c-0.267,2.26,2.958,4.083,4.977,7.144l-0.556,0.365
							c3.573,3.936,4.596,3.294,6.928,4.222c-0.218,1-0.704,0.766-2.315,0.18c1.853,3.039,6.151,6.611,9.001,9.318
							c0.558,1.242-0.302,0.985-1.449,0.274c3.46,2.279,6.952,6.098,9.945,6.351c-1.15-0.121,1.1,1.282,2.205,2.347
							c0.168-0.25,0.624-0.416,0.752-0.283c2.408,0.893,7.307,3.254,9.68,4.948l-1.126-0.103c2.902,1.691,5.369,2.141,7.793,2.723
							c1.234,0.249,2.467,0.523,3.784,0.967c1.327,0.421,2.764,0.935,4.383,1.791c1.142,0.708-1.659,0.734,0.911,1.502
							c1.41-0.146,1.311-1.315,4.458-0.093l-0.47,0.868l2.479-0.384c-0.479-0.528-1.64-0.93-2.328-1.262
							c-0.684-0.35-0.905-0.568,0.455-0.634c1.329,0.783,2.02,0.725,2.771,0.701c0.758-0.034,1.56,0.027,3.23,0.86
							c-0.839-0.054-2.066,0.439-2.734,0.653c3.619,1.39,6.342,1.623,9.042,1.743c1.348,0.083,2.697,0.165,4.192,0.257
							c1.494,0.092,3.115,0.429,5.048,0.743c1.952-0.322,4.155-0.436,6.2-0.754c1.022-0.134,2.004-0.265,2.893-0.41
							c0.887-0.171,1.679-0.391,2.325-0.612c-0.152,0.97-0.054,1.811-1.815,2.7c3.363-0.161,4.688-2.341,7.13-1.301
							c1.419-1.409,8.934-2.265,9.244-4.344c0.208,0.332,3.398-0.819,0.324,0.986c4.173-1.584,6.094-0.002,8.106-0.591
							c1.089-0.397-1.612-0.703,0.881-1.538c0.327-0.036,0.457,0.114,0.791,0.075l0.806-0.747c1.127,0.038-0.77,1.242-0.717,1.73
							c1.808-0.468,3.19-1.191,4.558-2.117c1.355-0.96,2.79-1.901,4.718-2.911l-0.536,0.618l4.021-1.897l-0.179,0.206
							c0,0,0.183-0.135,0.457-0.336c0.266-0.217,0.619-0.507,0.973-0.797c0.702-0.577,1.404-1.154,1.404-1.154l0.139,0.466
							c0.658-0.52,0.678-0.87,1.654-1.48l-0.026,0.684c0.273-0.661,1.207-1.699,2.304-2.662c0.545-0.488,1.136-0.955,1.682-1.39
							c0.533-0.455,1.038-0.853,1.453-1.15l0.468-0.011c0,0,0.804-0.934,1.606-1.867c0.754-0.973,1.508-1.945,1.508-1.945
							c2.385-1.096-1.687,3.123,2.005-0.382l-0.271,1.745c0.66-0.679,1.203-1.171,1.673-1.559c0.256,0.475,0.511,0.949,0.717,1.332
							c-1.738,0.493-2.566,0.429-4.311,1.205c1.252,0.294,2.949-0.244,1.816,0.607c-3.161-0.521-4.468,1.416-7.176,2.56
							c1.412-0.317,2.381-0.504,3.193-1.38c1.493-0.287,0.677,0.509,1.607,0.37l1.93-1.207l0.804,0.634
							c0.868-0.402,1.736-0.804,2.651-1.047c-0.766-1.445-1.53-2.891-2.331-4.378l-0.521,0.681
							c-0.438-0.875-2.602,1.916-2.162,0.273c-1.634,1.876-3.209,2.069-4.463,4.162c-1.67,0.479,1.727-2.086,0.242-1.151
							c-3.754,3.101-7.96,5.822-12.501,7.975c-4.522,2.181-9.303,3.969-14.242,5.189l0.82-0.698
							c-0.817,0.688-1.968,1.43-2.604,1.923c-0.949-0.172-3.086-0.067-5.23,0.25c-2.167,0.22-4.325,0.819-5.391,1.653
							c-0.335-0.037,0.139-0.314,0.364-0.453c-3.346,0.677-9.489,0.326-14.25,0.433c-1.009,0.815-2.829,0.456-4.597,0.253
							c-1.776-0.177-3.493-0.519-4.5,0.463l1.033-0.34c1.604,0.715-2.463,1.231-3.219,1.677c-1.209-1.496,0.014-1.03-1.435-2.482
							c0,0,0.458,0.184,0.916,0.368c0.458,0.196,0.924,0.339,0.924,0.339l-0.296-1.141c-3.176,1.002-6.017,0.305-8.42-0.656
							c-0.604-0.227-1.191-0.448-1.759-0.662c-0.563-0.233-1.109-0.442-1.645-0.601c-1.072-0.324-2.111-0.424-3.165-0.174
							c0.251-0.041,0.239-0.225,0.509-0.269c-1.128-0.648-2.198-0.772-3.244-0.742c-0.522,0.013-1.036,0.062-1.54,0.096
							c-0.497,0.013-0.983,0.011-1.456-0.054c-0.019-0.611,1.33-0.459,2.392-0.613c-2.033-0.889-4.921-1.571-7.794-2.551
							c-1.457-0.437-2.871-1.024-4.202-1.617c-1.342-0.573-2.53-1.297-3.512-2.053c-1.886-0.131,0.12,1.192-1.756,0.859
							c-1.269-0.884-1.871-1.991-0.078-1.382c-0.754-0.826-1.897-1.634-3.286-2.435c-1.366-0.835-2.945-1.723-4.582-2.666
							c-1.589-1.009-3.299-1.992-4.768-3.186c-0.746-0.582-1.47-1.165-2.125-1.775c-0.636-0.633-1.219-1.275-1.724-1.923
							c-1.568-0.79-1.999-0.802-2.573-0.991c-0.571-0.195-1.317-0.539-3.399-2.208c0.619,0.261,0.724-0.29,0.955-0.623
							c0.232-0.334,0.57-0.439,1.722,0.598l0.671-0.169c-0.929-0.887-1.868-1.913-2.826-2.943c-0.485-0.509-0.974-1.021-1.458-1.528
							c-0.467-0.522-0.938-1.031-1.408-1.519s-0.94-0.951-1.403-1.385c-0.44-0.452-0.877-0.87-1.307-1.244
							c-0.853-0.753-1.705-1.311-2.45-1.641c0.885-0.859-0.361-0.912-0.961-2.876c-0.574-0.567-0.11,0.164,0.011,0.47
							c-1.992-0.94-1.561-2.413-2.448-3.445l0.442,0.29c0,0-0.665-0.68-1.329-1.36c-0.631-0.709-1.262-1.419-1.262-1.419
							c-0.176-0.619-0.44-1.542-0.18-1.835l-0.731,0.434c-0.997-1.75,0.489-1.371-0.86-3.465l-0.324,0.756
							c-0.411-1.558-2.249-3.496-1.54-4.184c0.139-0.137,0.197,0.178,0.455,0.674c0.078-1.392-0.696-2.766-1.455-4.252
							c-0.393-0.736-0.824-1.481-1.174-2.24c-0.32-0.769-0.578-1.544-0.681-2.312l-1.05,1.183c-1.383-2.713-0.323-1.825,0.171-1.867
							c-0.631-1.894-0.267-2.462-0.851-5c-0.627-1.169-0.642-0.533-1.123-0.846l-0.278-2.689l1.118,1.51
							c-1.477-1.76-1.861-4.355-2.154-6.747c-0.109-1.205-0.209-2.364-0.418-3.382c-0.179-1.022-0.429-1.908-0.942-2.569
							c0.279-1.595,0.924,1.345,1.089,0.391c0.135-1.231,0.048-2.509-0.011-3.818c-0.069-1.307-0.322-2.639-0.396-3.955
							c-0.096-1.314-0.247-2.616-0.194-3.834c0.059-1.218,0.213-2.358,0.555-3.346c0.432-1.62,0.816-3.296,1.134-5.02
							c0.419-1.707,0.779-3.465,1.131-5.25c0.397-1.774,0.95-3.534,1.456-5.307c0.137-0.44,0.253-0.887,0.416-1.319l0.525-1.28
							c0.358-0.85,0.731-1.691,1.124-2.518l-0.391-0.01c0,0,0.13-0.299,0.326-0.748c0.194-0.449,0.443-1.05,0.768-1.62
							c0.609-1.153,1.218-2.306,1.218-2.306c-0.064-0.802,0.288-2.013,0.819-3.25c0.534-1.237,1.1-2.571,1.218-3.79
							c0.167,0.305,0.782,0.119,0.727,0.666c0.232-0.508,0.471-1.028,0.706-1.54c0.265-0.495,0.527-0.983,0.79-1.438
							c0.525-0.91,1.054-1.687,1.62-2.103l-0.138,0.8c1.347-2.055,3.268-4.276,4.779-6.439c1.666-2.042,3.086-3.921,3.687-5.133
							c1.133-1.256,1.581-0.766,2.215-0.767c1.012-0.985,1.775-1.874,2.447-2.778c0.725-0.848,1.353-1.717,2.043-2.714
							c0.569-0.291,1.149-0.591,1.888-0.787c0,0,0.06-0.353,0.12-0.705c0.072-0.342,0.144-0.684,0.144-0.684
							c1.033-0.626,0.685,0.41,1.577,0.025c0.713-0.881,1.548-1.697,2.433-2.452c0.863-0.786,1.896-1.344,2.842-1.943
							c0.963-0.578,1.906-1.106,2.767-1.601c0.884-0.457,1.706-0.849,2.37-1.252l-0.614-0.167c0.957-0.948,3.441-1.642,2.325-0.481
							c1.378-0.678,2.582-1.25,3.68-1.899c1.101-0.642,2.099-1.359,3.184-2.07c2.225-1.283,4.666-2.916,8.734-4.04
							c0.517,0.379,1.412,0.229,2.454-0.109c-1.147-2.131-2.335-4.338-3.524-6.546c-0.956,0.83-1.998,1.924-2.974,2.782
							c-0.949,0.89-1.855,1.528-2.621,1.399c-1.228,1.499-2.332,2.626-3.332,3.658c-0.944,1.082-1.747,2.104-2.213,3.457
							c-0.191-0.058-0.463,0.149-0.099-0.341c-0.737,0.369-1.827,1.618-2.946,3.206c-1.086,1.616-2.218,3.549-3.074,5.286
							l-0.581-0.128c0.083,0.893-0.79,2.708-1.646,4.518c-0.823,1.829-1.587,3.678-1.379,4.554c-0.429,0.245-0.117-0.875-0.035-1.44
							c-0.996,0.593-1.256,1.452-1.458,2.402c-0.191,0.959-0.36,1.991-0.975,3.11c-0.187-0.301-0.803,0.249-0.781-0.332
							c-2.387,3.613-4.09,8.679-5.238,14.135c-1.159,5.471-1.813,11.289-2.613,16.812c-0.229,3.084,1.281-1.031,1.034,2.965
							c-0.647,1.144-1.156-2.026-1.502,0.535c0.663,1.888,0.533,2.55,0.512,5.042c-0.407-0.445-0.664-0.024-0.969-1.784
							c-0.224,0.727,0,2.271,0.267,3.975c0.317,1.704,0.497,3.576,0.2,5.061c0.349-0.183,0.627,0.318,0.904,0.822
							c0.401,1.015,0.569,2.127,0.717,3.225c0.152,1.096,0.198,2.191,0.21,3.177c0.027,1.97,0.055,3.48,0.363,3.609
							c0,0,0.493,1.403,0.328,0.123c0.288,1.525,0.764,3.71,0.087,3.497c0.534,0.7,1.216,1.242,1.607,2.4l-0.845-0.435
							c0.323,0.645,1.005,1.284,1.311,1.909l0.049-1.166c0.023,1.865,2.439,4.669,1.209,5.017l-0.251-0.549l0.671,3.313
							c0.96,1.054,2.058,2.024,2.794,4.122c-0.894,1.383,2.261,5.235,3.608,7.709l-0.476,0.133c1.647,1.617,4.571,6.472,4.206,5.48
							c1.246,1.751,2.702,4.308,1.724,3.701c1.303,1.223,3.599,4.162,4.847,4.297c0,0,0.361,0.854,0.722,1.708
							c0.354,0.868,0.761,1.701,0.76,1.701c1.366,0.186,2.445,1.574,3.429,2.751c1.005,1.152,1.855,2.138,2.545,1.549
							c1.221,1.559,0.639,1.526,1.456,2.664c2.629,1.162,4.724,3.006,6.904,4.843l-0.051,0.195c1.118,0.876,2.471,1.646,3.988,2.401
							c1.549,0.708,3.167,1.547,4.909,2.479l0.028,1.606c1.917,0.885,2.853,0.227,4.471,1.37c0.309,0.398-0.11,0.262-0.615,0.085
							c0.927,0.326,1.929,0.867,2.849,1.45c0.93,0.562,1.795,1.129,2.392,1.596c0.787,0.089,1.495,0.235,2.16,0.406
							c0.671,0.155,1.309,0.314,1.931,0.479c1.251,0.308,2.442,0.652,3.864,0.573c0.882,0.949,0.025,0.793-0.877,0.61
							c-0.89-0.208-1.815-0.466-1.091,0.44c3.785,2.103,8.204,2.868,12.89,3.346c0.329,0.349-0.229,0.434-0.49,0.67
							c0,0,0.625-0.071,1.546-0.175c0.91-0.099,2.115-0.323,3.259-0.611c2.292-0.558,4.307-1.356,3.576-2.155
							c1.287-0.713,2.586-0.985-1.01-2.429c-0.661,0.144-1.896,0.205-3.027,0.09c-1.127-0.126-2.128-0.495-2.333-1.052l-0.441,0.874
							c-2.535-0.386-2.516-0.896-2.599-1.491c-0.086-0.591-0.277-1.27-3.162-2.11l1.125,0.661c-1.104-0.263-2.179,0.064-3.285-0.673
							c-0.278-0.377,0.54-0.233,1.071-0.275c0,0-1.285-0.106-2.569-0.212c-0.648-0.058-1.296-0.115-1.782-0.158
							c-0.481-0.064-0.803-0.106-0.803-0.106c0.003-0.6,0.288-0.796,1.363-0.829c-4.27-1.672,0.237,1.98-4.872-0.488
							c-0.766-0.809,0.563-0.379,1.38-0.416c-1.059-0.836-2.008-1.351-3.073-1.658c-1.058-0.322-2.209-0.481-3.513-0.894
							c0.355-0.774,1.868,0.124,0.164-1.376c0.185,0.599,0.103,1.393-1.457,0.68c1.143-0.403-0.966-0.95-2.273-2.009
							c0.145,0.427-0.161,0.714-0.803,0.515c-0.777-0.295-1.21-0.94-2.228-1.465l1.347,1.754c-0.729-0.189-1.329-0.452-1.841-0.759
							c-0.505-0.32-0.912-0.702-1.286-1.091c-0.744-0.786-1.332-1.632-2.141-2.382c0.234-0.024,0.614,0.083,1.008,0.279
							c-0.884-0.743-1.647-1.679-2.589-2.479c-0.464-0.41-0.971-0.791-1.521-1.16c-0.54-0.381-1.137-0.73-1.819-1.031l0.26,0.069
							c-2.401-1.353-2.307-0.825-2.281-0.359c0.034,0.447-0.064,0.908-2.761-0.923c-0.748-0.765-0.093-1.119,0.2-1.592
							c0.306-0.491,0.2-1.011-1.87-2.323c1.185,2.115-3.533-0.833-5.672-2.728l3.183,0.938c-0.758-0.815-2.431-1.901-2.734-2.459
							l-0.176,0.353c-0.449,0.561-1.034-0.133-1.712-1.116c-0.679-0.983-1.53-2.171-2.477-2.71c3.077,0.717,2.904,1.007,4.631,0.106
							c-2.043-0.727-4.229-1.859-6.192-4.827c0,0,0.18,0.094,0.449,0.234c0.268,0.141,0.625,0.327,1.001,0.495
							c0.738,0.34,1.475,0.681,1.475,0.681c-0.329-0.482-0.696-0.949-1.094-1.403c-0.382-0.466-0.782-0.93-1.213-1.377
							c-0.85-0.902-1.838-1.733-2.752-2.599c-0.929-0.855-1.93-1.652-2.833-2.447c-0.902-0.811-1.755-1.579-2.521-2.267
							c1.479,0.38,1.018-1.191,2.677-0.196c0,0-0.154-0.236-0.384-0.591c-0.223-0.358-0.554-0.819-0.825-1.313
							c-0.566-0.975-1.133-1.951-1.133-1.951l1.643,0.577c-0.96-0.524-1.49-1.34-1.936-1.896c-0.436-0.562-0.768-0.882-1.428-0.402
							c0.405,0.355,0.517,0.229,0.882,1.029c-0.491,0.123-1.721-0.162-2.636-2.366c-0.304-1.615,0.951,0.606,1.172,0.012
							c-1.199-1.123-0.341-1.598-1.325-2.878c0,0-0.028,0.392-0.056,0.784c-0.034,0.396-0.038,0.782-0.038,0.782
							c-1.279-0.67-1.011-2.421-2.019-3.706c1.063,1.617,1.324,0.838,1.584-0.003l-0.074,0.136c-0.497-1.011-1.55-2.239-1.312-3.147
							l1.513,0.49l-1.417-1.271c-0.055-0.648,0.232-1.202,0.8-0.282c-0.244-1.268-0.472-1.854-0.755-2.116
							c-0.283-0.261-0.608-0.199-0.934-0.188c-0.628,0.021-1.37-0.167-1.64-3.632c0.498,0.001,0.94,0.649,1.19,2.488
							c0.83,0.077,1.113-0.481,0.926-2.294c0.049-0.045,0.092-0.029,0.136-0.044c-0.358-1.695-0.861-3.624-1.221-5.434
							c-0.202-0.901-0.432-1.761-0.678-2.533C214.086,214.649,213.844,213.963,213.562,213.419z"/>
						<path fill="#59BA47" d="M216.194,223.393c0.465,1.791,0.923,3.29,1.273,3.937
							C217.617,226.911,216.907,223.117,216.194,223.393z"/>
						<path fill="#59BA47" d="M203.567,289.426c-0.209-0.147-0.414-0.285-0.62-0.414
							C203.164,289.157,203.368,289.293,203.567,289.426z"/>
						<path fill="#59BA47" d="M216.258,298.807c-0.068-0.204-0.276-0.438-0.54-0.683C215.579,298.33,215.644,298.6,216.258,298.807z
							"/>
						<path fill="#59BA47" d="M200.005,157.308c-0.012,0.016-0.027,0.036-0.042,0.056
							C199.979,157.344,199.994,157.324,200.005,157.308z"/>
						<path fill="#59BA47" d="M174.211,240.341c0.713,1.278,1.161,1.701,1.496,1.698
							C175.411,241.214,174.968,240.574,174.211,240.341z"/>
						<path fill="#59BA47" d="M173.498,209.887c-0.034-0.201-0.062-0.416-0.108-0.594
							C173.397,209.747,173.436,209.874,173.498,209.887z"/>
						<path fill="#59BA47" d="M203.11,153.618c-0.731,1.214-2.218,2.383-3.104,3.69C200.738,156.164,202.96,154.848,203.11,153.618z
							"/>
						<polygon fill="#59BA47" points="233.735,306.465 232.042,306.474 233.736,306.664 						"/>
						<path fill="#59BA47" d="M220.548,300.352c-0.5-0.431-2.861-1.479-2.421-0.792C218.947,299.72,219.749,300.063,220.548,300.352
							z"/>
						<path fill="#59BA47" d="M183.712,259.649l-0.882-0.269c0,0,0.254,0.236,0.509,0.473c0.253,0.236,0.528,0.459,0.528,0.459
							L183.712,259.649z"/>
					</g>
				</g>
			</g>
		</g>
	</g>
	<g>
		<polygon fill="#FFFFFF" points="297.868,164.386 307.434,196.348 340.787,195.568 313.346,214.542 324.395,246.022 
			297.868,225.786 271.343,246.022 282.392,214.542 254.95,195.568 288.304,196.348 		"/>
		<path fill="#68BD45" d="M297.868,164.386l9.954,31.845l-0.398-0.289l8.337-0.291l8.338-0.193l16.677-0.39l1.67-0.039l-1.374,0.95
			l-27.441,18.974l0.188-0.577l11.049,31.48l0.554,1.577l-1.329-1.014l-26.526-20.236h0.606l-26.525,20.236l-1.328,1.014
			l0.553-1.577l11.049-31.48l0.187,0.577l-27.442-18.974l-1.375-0.95l1.67,0.039l16.677,0.39l8.339,0.195l8.336,0.295l-0.393,0.285
			L297.868,164.386z M297.868,164.386l-9.181,32.077l-0.083,0.289l-0.31-0.003l-8.341-0.095l-8.338-0.195l-16.677-0.39l0.296-0.911
			l27.442,18.974l0.314,0.217l-0.126,0.36l-11.049,31.48l-0.775-0.563l26.525-20.236l0.303-0.231l0.303,0.231l26.526,20.236
			l-0.774,0.563l-11.049-31.48l-0.126-0.36l0.313-0.217l27.441-18.974l0.296,0.911l-16.677,0.39l-8.338,0.197l-8.341,0.099
			l-0.314,0.004l-0.084-0.293L297.868,164.386z"/>
	</g>
</g>
</svg>
